<svg width="10" height="10" viewBox="0 0 10 10" fill="none" xmlns="http://www.w3.org/2000/svg">
<g clip-path="url(#clip0_12_970)">
<path d="M0.299727 4.39352C0.136348 4.39352 0.00390625 4.52598 0.00390625 4.68934V9.03422C0.00390625 9.1976 0.136367 9.33004 0.299727 9.33004H2.08201V4.39352H0.299727ZM9.99631 6.02709C9.99631 5.65156 9.79453 5.32227 9.49371 5.14192C9.613 4.96993 9.67681 4.76557 9.67656 4.55627C9.67656 3.98766 9.21395 3.52504 8.64533 3.52504H6.46842C6.53514 3.2227 6.62639 2.76901 6.68992 2.29406C6.85527 1.05811 6.74227 0.372658 6.33432 0.136935C6.07998 -0.00999862 5.80576 -0.0398033 5.56217 0.0529311C5.37398 0.124611 5.11984 0.300841 4.97502 0.733361L4.40287 2.23143C4.11281 2.94777 3.22455 3.69983 2.67367 4.11567V9.46094C3.69465 9.81867 4.76004 10 5.84695 10H8.21894C8.78756 10 9.25018 9.53738 9.25018 8.96877C9.25041 8.77682 9.19675 8.58867 9.09529 8.42572C9.43906 8.2583 9.67652 7.90529 9.67652 7.49793C9.67677 7.28863 9.61296 7.08427 9.49367 6.91229C9.79453 6.73193 9.99631 6.40262 9.99631 6.02709Z" fill="#008ECB"/>
</g>
<defs>
<clipPath id="clip0_12_970">
<rect width="10" height="10" fill="white"/>
</clipPath>
</defs>
</svg>
