<svg width="167" height="36" viewBox="0 0 167 36" fill="none" xmlns="http://www.w3.org/2000/svg">
<path d="M25.7741 33.4825C25.0861 31.1325 26.5081 28.5981 28.4347 24.6813C28.3888 30.2109 29.2604 35.464 34.3521 35.2797C37.1961 35.1875 39.0768 33.8973 39.5355 33.4825C38.297 31.6393 36.875 23.5753 36.2787 17.0781C35.6823 11.0416 34.0768 5.65022 29.4438 5.41982H29.031C27.609 5.4659 26.4163 5.78846 25.5448 6.20318C24.5356 6.57182 23.8017 6.98654 23.4806 7.21694C24.4439 9.93566 22.7466 17.3085 20.6824 24.2665L20.132 26.1097C20.0861 24.4509 19.9485 22.3312 19.6733 19.6125C18.8017 11.3181 16.6916 5.41982 10.6366 5.41982H9.85682C7.05867 5.41982 4.44401 6.75614 3.89356 7.21694C4.6275 9.01406 4.48989 13.8525 3.29723 20.3958C2.15045 26.5705 0.453216 35.2797 6.50822 35.2797C9.30637 35.2797 11.5999 33.8973 12.1963 33.4825C10.7742 31.2246 10.5908 26.6627 11.1412 21.7321C11.3706 22.3773 11.5541 23.0224 11.7375 23.6214C13.6183 29.7961 14.5816 35.2797 21.0494 35.2797C21.5081 35.2797 21.8292 35.2797 22.1044 35.1875C23.8475 34.8649 25.1778 33.8512 25.7741 33.4825ZM49.2226 12.424C42.0667 12.424 38.1217 15.8339 38.1217 23.8979C38.1217 31.9619 42.0667 35.4179 49.2226 35.4179C56.4244 35.4179 60.3693 31.9619 60.3693 23.8979C60.3693 15.8339 56.4244 12.424 49.2226 12.424ZM49.2226 32.1923C47.6171 32.1923 47.7547 28.5059 47.7547 23.8979C47.7547 19.336 47.6171 15.6035 49.2226 15.6035C50.8281 15.6035 50.7363 19.336 50.7363 23.8979C50.7363 28.5059 50.8281 32.1923 49.2226 32.1923ZM59.7891 5.28158C59.7891 7.95422 61.945 10.12 64.6056 10.12C67.2202 10.12 69.3762 7.95422 69.3762 5.28158C69.3762 2.65502 67.2202 0.489258 64.6056 0.489258C61.945 0.489258 59.7891 2.65502 59.7891 5.28158ZM60.3854 14.175C61.5322 16.3408 61.5781 21.3635 61.3029 25.2342C61.0735 28.4137 59.9726 35.2797 66.257 35.2797C69.0551 35.2797 71.5321 33.9433 72.0367 33.4825C70.8899 31.3168 70.8441 25.8333 71.1193 21.9165C71.3487 18.783 72.4496 12.3779 66.1652 12.3779C63.3671 12.3779 60.89 13.7142 60.3854 14.175ZM72.0324 30.4873C72.0324 33.1139 74.1884 35.2797 76.8489 35.2797C79.5094 35.2797 81.6195 33.1139 81.6195 30.4873C81.6195 27.8147 79.5094 25.6489 76.8489 25.6489C74.1884 25.6489 72.0324 27.8147 72.0324 30.4873ZM92.8694 16.8937C96.0804 16.5251 95.3465 19.7968 95.1171 21.8704C101.952 23.5293 104.2 17.032 99.9336 14.0829C98.1905 12.8848 95.8052 12.2857 92.5483 12.424C86.7227 12.6544 81.1264 16.9398 81.1264 23.8979C81.1264 30.6717 86.1264 35.4179 92.8694 35.4179C98.6951 35.4179 103.19 31.2707 103.649 25.1881C99.5208 29.1049 92.0438 29.5197 90.7594 23.8979C89.9795 20.5801 90.5759 17.1702 92.8694 16.8937ZM114.84 25.2342C114.702 28.4137 113.83 35.2797 120.115 35.2797C122.959 35.2797 125.39 33.9433 125.895 33.4825C124.748 31.3168 124.564 25.8333 124.84 21.9165C125.069 18.783 125.528 12.424 119.243 12.424C115.115 12.424 112.363 14.4515 110.849 18.5065C110.849 18.4605 110.849 18.4144 110.895 18.3683C112.73 12.8848 114.106 5.41982 108.051 5.41982C105.207 5.41982 102.775 6.80222 102.225 7.21694C103.142 9.06014 103.509 13.8985 102.959 20.3958C102.454 26.5705 101.629 35.2797 107.684 35.2797C110.528 35.2797 113.326 33.9433 113.83 33.4825C113.28 32.4227 112.454 29.704 112.913 25.1421V24.7734C113.326 21.5017 114.335 17.8614 115.298 17.8614C116.583 17.8614 114.931 23.1606 114.84 25.2342ZM143 35.2797C145.477 35.2797 147.449 33.9433 147.999 33.4825C146.853 31.3168 146.532 26.248 147.266 20.3958C147.862 15.88 144.192 12.7926 137.357 12.424C133.55 12.1936 127.587 13.3917 126.348 16.9398C124.742 21.4557 128.091 23.4371 133.183 22.1008C132.862 20.488 132.77 17.631 135.201 17.631C137.357 17.631 137.816 19.1517 137.494 21.64C132.357 22.0547 125.385 23.944 125.385 29.4736C125.385 33.2521 128.55 35.2797 131.439 35.2797C134.422 35.2797 137.036 33.8512 138.504 30.4413C138.734 33.1139 139.651 35.2797 143 35.2797ZM136.853 26.2019C136.532 27.3078 135.935 28.0451 134.697 28.0451C132.954 28.0451 132.678 26.7549 133.229 26.0176C133.917 25.1881 135.201 24.7734 137.036 24.543C136.945 25.0499 136.899 25.6489 136.853 26.2019ZM146.046 18.783C146.413 18.5987 147.514 18.4605 148.936 18.4144C148.66 25.2342 148.064 33.5747 155.816 35.0493C159.394 35.7405 165.954 35.1414 166.321 29.2432C166.596 25.3725 162.559 23.391 158.569 26.0176C159.945 27.7225 160.174 30.2109 159.257 30.3491C158.293 30.4873 157.972 24.9577 158.431 19.0595C161.367 19.1977 164.027 18.6909 164.807 16.5712C165.174 15.4653 165.174 14.3133 165.174 13.3456C164.486 13.6681 162.513 14.0829 159.073 14.0368C159.486 11.9171 160.082 9.65918 160.541 8.96798C160.036 8.50718 157.651 7.12478 154.853 7.17086C151.458 7.21694 149.991 10.3965 149.394 13.576C147.514 13.8064 146 14.4515 145.725 15.88C145.54 16.9859 145.816 18.2761 146.046 18.783Z" fill="#E70E66"/>
</svg>
