<svg width="165" height="36" viewBox="0 0 165 36" fill="none" xmlns="http://www.w3.org/2000/svg">
<path d="M23.7739 33.4825C23.0858 31.1325 24.5078 28.5981 26.4344 24.6813C26.3886 30.2109 27.2601 35.464 32.3518 35.2797C35.1958 35.1875 37.0766 33.8973 37.5353 33.4825C36.2967 31.6393 34.8747 23.5753 34.2784 17.0781C33.6821 11.0416 32.0766 5.65022 27.4436 5.41982H27.0308C25.6087 5.4659 24.4161 5.78846 23.5445 6.20318C22.5354 6.57182 21.8014 6.98654 21.4803 7.21694C22.4436 9.93566 20.7464 17.3085 18.6822 24.2665L18.1317 26.1097C18.0859 24.4509 17.9482 22.3312 17.673 19.6125C16.8015 11.3181 14.6914 5.41982 8.63639 5.41982H7.85658C5.05843 5.41982 2.44377 6.75614 1.89332 7.21694C2.62726 9.01406 2.48964 13.8525 1.29699 20.3958C0.150208 26.5705 -1.54703 35.2797 4.50798 35.2797C7.30612 35.2797 9.59968 33.8973 10.196 33.4825C8.774 31.2246 8.59052 26.6627 9.14097 21.7321C9.37033 22.3773 9.55381 23.0224 9.7373 23.6214C11.618 29.7961 12.5813 35.2797 19.0492 35.2797C19.5079 35.2797 19.829 35.2797 20.1042 35.1875C21.8473 34.8649 23.1776 33.8512 23.7739 33.4825ZM47.2223 12.424C40.0664 12.424 36.1215 15.8339 36.1215 23.8979C36.1215 31.9619 40.0664 35.4179 47.2223 35.4179C54.4241 35.4179 58.3691 31.9619 58.3691 23.8979C58.3691 15.8339 54.4241 12.424 47.2223 12.424ZM47.2223 32.1923C45.6169 32.1923 45.7545 28.5059 45.7545 23.8979C45.7545 19.336 45.6169 15.6035 47.2223 15.6035C48.8278 15.6035 48.7361 19.336 48.7361 23.8979C48.7361 28.5059 48.8278 32.1923 47.2223 32.1923ZM57.7889 5.28158C57.7889 7.95422 59.9448 10.12 62.6053 10.12C65.22 10.12 67.3759 7.95422 67.3759 5.28158C67.3759 2.65502 65.22 0.489258 62.6053 0.489258C59.9448 0.489258 57.7889 2.65502 57.7889 5.28158ZM58.3852 14.175C59.532 16.3408 59.5778 21.3635 59.3026 25.2342C59.0733 28.4137 57.9723 35.2797 64.2567 35.2797C67.0548 35.2797 69.5319 33.9433 70.0365 33.4825C68.8897 31.3168 68.8438 25.8333 69.1191 21.9165C69.3484 18.783 70.4493 12.3779 64.165 12.3779C61.3668 12.3779 58.8898 13.7142 58.3852 14.175ZM70.0322 30.4873C70.0322 33.1139 72.1881 35.2797 74.8487 35.2797C77.5092 35.2797 79.6193 33.1139 79.6193 30.4873C79.6193 27.8147 77.5092 25.6489 74.8487 25.6489C72.1881 25.6489 70.0322 27.8147 70.0322 30.4873ZM90.8692 16.8937C94.0802 16.5251 93.3462 19.7968 93.1169 21.8704C99.9517 23.5293 102.199 17.032 97.9333 14.0829C96.1902 12.8848 93.8049 12.2857 90.5481 12.424C84.7224 12.6544 79.1262 16.9398 79.1262 23.8979C79.1262 30.6717 84.1261 35.4179 90.8692 35.4179C96.6948 35.4179 101.19 31.2707 101.649 25.1881C97.5205 29.1049 90.0435 29.5197 88.7591 23.8979C87.9793 20.5801 88.5756 17.1702 90.8692 16.8937ZM112.839 25.2342C112.702 28.4137 111.83 35.2797 118.115 35.2797C120.959 35.2797 123.39 33.9433 123.894 33.4825C122.748 31.3168 122.564 25.8333 122.839 21.9165C123.069 18.783 123.527 12.424 117.243 12.424C113.115 12.424 110.362 14.4515 108.849 18.5065C108.849 18.4605 108.849 18.4144 108.894 18.3683C110.729 12.8848 112.105 5.41982 106.05 5.41982C103.206 5.41982 100.775 6.80222 100.225 7.21694C101.142 9.06014 101.509 13.8985 100.959 20.3958C100.454 26.5705 99.6284 35.2797 105.683 35.2797C108.527 35.2797 111.326 33.9433 111.83 33.4825C111.28 32.4227 110.454 29.704 110.913 25.1421V24.7734C111.326 21.5017 112.335 17.8614 113.298 17.8614C114.582 17.8614 112.931 23.1606 112.839 25.2342ZM140.999 35.2797C143.476 35.2797 145.449 33.9433 145.999 33.4825C144.852 31.3168 144.531 26.248 145.265 20.3958C145.862 15.88 142.192 12.7926 135.357 12.424C131.55 12.1936 125.587 13.3917 124.348 16.9398C122.742 21.4557 126.091 23.4371 131.183 22.1008C130.862 20.488 130.77 17.631 133.201 17.631C135.357 17.631 135.816 19.1517 135.494 21.64C130.357 22.0547 123.385 23.944 123.385 29.4736C123.385 33.2521 126.55 35.2797 129.439 35.2797C132.421 35.2797 135.036 33.8512 136.504 30.4413C136.733 33.1139 137.651 35.2797 140.999 35.2797ZM134.853 26.2019C134.531 27.3078 133.935 28.0451 132.697 28.0451C130.953 28.0451 130.678 26.7549 131.229 26.0176C131.917 25.1881 133.201 24.7734 135.036 24.543C134.944 25.0499 134.898 25.6489 134.853 26.2019ZM144.045 18.783C144.412 18.5987 145.513 18.4605 146.935 18.4144C146.659 25.2342 146.064 33.5747 153.816 35.0493C157.394 35.7405 163.954 35.1414 164.321 29.2432C164.596 25.3725 160.559 23.391 156.568 26.0176C157.944 27.7225 158.174 30.2109 157.256 30.3491C156.293 30.4873 155.972 24.9577 156.431 19.0595C159.366 19.1977 162.027 18.6909 162.807 16.5712C163.174 15.4653 163.174 14.3133 163.174 13.3456C162.486 13.6681 160.513 14.0829 157.073 14.0368C157.486 11.9171 158.082 9.65918 158.541 8.96798C158.036 8.50718 155.651 7.12478 152.853 7.17086C149.458 7.21694 147.99 10.3965 147.394 13.576C145.513 13.8064 144 14.4515 143.724 15.88C143.54 16.9859 143.816 18.2761 144.045 18.783Z" fill="white"/>
</svg>
