<svg width="403" height="398" viewBox="0 0 403 398" fill="none" xmlns="http://www.w3.org/2000/svg">
<g clip-path="url(#clip0_205_79)">
<path d="M136.522 331.514C113.428 340.211 86.4445 337.046 63.256 328.606C53.1324 324.927 43.5875 319.006 37.0693 310.423C30.5416 301.84 27.3632 290.387 30.0957 279.96C32.4107 271.13 38.5305 263.906 43.8817 256.531C55.9977 239.84 65.1821 219.262 61.4248 198.97C58.0187 180.606 44.5173 165.228 41.6994 146.769C38.7961 127.722 50.8743 106.06 69.8596 102.99C79.2527 101.47 88.7216 104.388 98.1621 105.566C110.316 107.087 122.821 105.68 134.33 101.498C154.122 94.3125 170.033 79.5515 186.362 66.2448C202.681 52.9286 221.145 40.2967 242.142 38.8425C253.612 38.0441 266.241 41.3708 272.968 50.7235C282.911 64.5435 276.526 85.7011 286.896 99.2074C294.173 108.693 307.295 111.155 319.222 111.839C331.148 112.533 343.833 112.353 353.966 118.683C364.877 125.498 370.39 138.51 372.61 151.199C375.551 168.013 373.787 185.634 367.582 201.526C361.073 218.198 349.934 232.664 342.647 249.003C335.361 265.342 332.419 285.501 342.277 300.433C349.735 311.735 364.137 328.634 360.2 344.954C352.515 376.871 276.526 370.579 255.842 358.213C243.897 351.075 235.339 338.51 222.426 333.32C194.692 322.18 163.183 321.486 136.541 331.514H136.522Z" fill="#FDEBE7"/>
<path d="M314.961 102.867C320.196 102.867 324.44 98.6156 324.44 93.3715C324.44 88.1274 320.196 83.8762 314.961 83.8762C309.727 83.8762 305.483 88.1274 305.483 93.3715C305.483 98.6156 309.727 102.867 314.961 102.867Z" fill="#FDEBE7"/>
<path d="M355.019 67.642C355.019 68.8301 354.061 69.7901 352.875 69.7901C351.689 69.7901 350.731 68.8301 350.731 67.642C350.731 66.4539 351.689 65.4939 352.875 65.4939C354.061 65.4939 355.019 66.4539 355.019 67.642Z" fill="#FDEBE7"/>
<path d="M376.728 202.116C382.639 202.116 387.43 197.316 387.43 191.394C387.43 185.473 382.639 180.673 376.728 180.673C370.817 180.673 366.025 185.473 366.025 191.394C366.025 197.316 370.817 202.116 376.728 202.116Z" fill="#FDEBE7"/>
<path d="M376.728 255.419C376.728 257.614 374.944 259.401 372.753 259.401C370.561 259.401 368.777 257.614 368.777 255.419C368.777 253.223 370.561 251.436 372.753 251.436C374.944 251.436 376.728 253.223 376.728 255.419Z" fill="#FDEBE7"/>
<path d="M369.425 315.193C374.679 309.93 374.679 301.396 369.425 296.133C364.17 290.869 355.652 290.869 350.398 296.133C345.144 301.396 345.144 309.93 350.398 315.193C355.652 320.457 364.17 320.457 369.425 315.193Z" fill="#FDEBE7"/>
<path d="M402.108 315.764C402.108 317.96 400.324 319.747 398.133 319.747C395.941 319.747 394.157 317.96 394.157 315.764C394.157 313.569 395.941 311.782 398.133 311.782C400.324 311.782 402.108 313.569 402.108 315.764Z" fill="#FDEBE7"/>
<path d="M232.701 31.1816C235.232 31.1816 237.284 29.1262 237.284 26.5908C237.284 24.0554 235.232 22 232.701 22C230.17 22 228.118 24.0554 228.118 26.5908C228.118 29.1262 230.17 31.1816 232.701 31.1816Z" fill="#FDEBE7"/>
<path d="M100.297 53.5559C105.196 53.5559 109.168 49.5771 109.168 44.669C109.168 39.7608 105.196 35.782 100.297 35.782C95.3976 35.782 91.4258 39.7608 91.4258 44.669C91.4258 49.5771 95.3976 53.5559 100.297 53.5559Z" fill="#FDEBE7"/>
<path d="M148.876 95.9981C156.92 92.4674 160.584 83.0727 157.06 75.0143C153.535 66.9559 144.157 63.2854 136.113 66.8161C128.069 70.3468 124.405 79.7416 127.93 87.8C131.454 95.8584 140.832 99.5288 148.876 95.9981Z" fill="#FDEBE7"/>
<path d="M56.5672 48.3473C59.271 48.3473 61.4629 46.1515 61.4629 43.4428C61.4629 40.7341 59.271 38.5383 56.5672 38.5383C53.8633 38.5383 51.6714 40.7341 51.6714 43.4428C51.6714 46.1515 53.8633 48.3473 56.5672 48.3473Z" fill="#FDEBE7"/>
<path d="M31.1868 92.1549C34.7343 92.1549 37.6101 89.274 37.6101 85.7201C37.6101 82.1663 34.7343 79.2854 31.1868 79.2854C27.6392 79.2854 24.7634 82.1663 24.7634 85.7201C24.7634 89.274 27.6392 92.1549 31.1868 92.1549Z" fill="#FDEBE7"/>
<path d="M4.58267 164.743C7.11361 164.743 9.16534 162.688 9.16534 160.152C9.16534 157.617 7.11361 155.561 4.58267 155.561C2.05173 155.561 0 157.617 0 160.152C0 162.688 2.05173 164.743 4.58267 164.743Z" fill="#FDEBE7"/>
<path d="M61.9495 353.369C65.0479 340.073 56.8001 326.778 43.5276 323.674C30.2551 320.57 16.9839 328.833 13.8855 342.129C10.7871 355.425 19.0349 368.72 32.3074 371.823C45.5799 374.927 58.8511 366.665 61.9495 353.369Z" fill="#FDEBE7"/>
<path d="M107.231 344.17C108.366 339.336 105.374 334.496 100.548 333.36C95.7226 332.223 90.891 335.221 89.7566 340.055C88.6221 344.889 91.6142 349.729 96.4398 350.866C101.265 352.002 106.097 349.005 107.231 344.17Z" fill="#FDEBE7"/>
<path d="M398.512 238.738C400.991 238.738 403 236.725 403 234.242C403 231.759 400.991 229.746 398.512 229.746C396.034 229.746 394.024 231.759 394.024 234.242C394.024 236.725 396.034 238.738 398.512 238.738Z" fill="#FDEBE7"/>
<path d="M385.618 70.1987C387.169 70.1987 388.426 68.9391 388.426 67.3853C388.426 65.8315 387.169 64.5719 385.618 64.5719C384.067 64.5719 382.81 65.8315 382.81 67.3853C382.81 68.9391 384.067 70.1987 385.618 70.1987Z" fill="#FDEBE7"/>
<path d="M12.1257 206.707C13.0531 206.707 13.805 205.953 13.805 205.024C13.805 204.095 13.0531 203.342 12.1257 203.342C11.1982 203.342 10.4463 204.095 10.4463 205.024C10.4463 205.953 11.1982 206.707 12.1257 206.707Z" fill="#FDEBE7"/>
<path d="M68.9963 193.514C60.4762 194.807 51.6903 196.099 43.3409 193.999C34.9821 191.898 27.0881 185.52 25.9306 176.966C24.7731 168.383 30.6081 160.238 37.6956 155.276C44.7831 150.315 53.161 147.587 60.6944 143.348C73.9016 135.924 84.3763 123.739 89.7275 109.549C93.3329 99.9963 94.6137 89.1894 91.1696 79.5801C87.7255 69.9612 78.8828 61.9582 68.7022 61.4544C62.6489 61.1598 56.1497 63.8876 53.4171 69.3054C49.3658 77.3274 55.5709 87.6021 64.0057 90.6626C72.4404 93.7232 81.862 91.4135 90.1544 88.0013C113.286 78.487 132.101 61.0077 150.042 43.5569C158.989 34.8505 168.658 25.6404 180.954 23.5113C197.748 20.6028 213.887 32.0086 224.352 45.4864C229.817 52.5199 234.418 60.3233 240.937 66.3779C254.988 79.4375 276.317 82.384 294.932 77.8027C313.548 73.2309 329.896 62.1198 344.668 49.8681C350.693 44.8686 357.012 36.4283 352.401 30.0886C350.352 27.2657 346.727 26.1061 343.302 25.4598C331.878 23.2927 317.941 26.3152 313.016 36.8655C309.838 43.671 311.29 51.6835 313.33 58.9166C321.053 86.2999 336.509 111.459 357.43 130.697C366.396 138.947 376.681 146.57 381.624 157.719C385.495 166.454 385.59 176.386 384.66 185.891C383.626 196.365 381.339 206.935 375.94 215.964C370.542 224.994 361.633 232.332 351.243 233.909C340.854 235.497 329.269 230.298 325.123 220.622" stroke="#E50050" stroke-width="0.95" stroke-miterlimit="10"/>
<path d="M199.863 398C273.15 398 332.562 394.902 332.562 391.08C332.562 387.259 273.15 384.161 199.863 384.161C126.576 384.161 67.165 387.259 67.165 391.08C67.165 394.902 126.576 398 199.863 398Z" fill="#FCFCFC"/>
<path d="M370.172 107.429C394.556 92.2309 404.974 116.905 360.76 128.653C346.604 84.7031 367.041 77.9547 370.172 107.429Z" fill="#E50050"/>
<path d="M288.262 60.9886C303.177 51.6929 309.544 66.7865 282.503 73.9626C273.85 47.0926 286.346 42.958 288.262 60.9886Z" fill="#E50050"/>
<path d="M41.0638 119.063C44.3846 90.482 70.1444 97.6961 51.7662 139.66C8.63407 123.378 16.0916 103.152 41.0638 119.063Z" fill="#E50050"/>
<path d="M327.267 125.108C327.362 116.829 334.943 118.122 330.949 130.678C318.121 127.313 319.649 121.306 327.267 125.108Z" fill="#E50050"/>
<path d="M71.9659 75.0558C70.8938 66.8531 78.579 67.0527 76.3968 80.0553C63.2275 78.544 63.8917 72.3754 71.9659 75.0558Z" fill="#E50050"/>
<path d="M186.817 64.0111C190.005 70.9591 186.96 79.1808 180.024 82.3744C173.088 85.568 164.881 82.5169 161.693 75.5689C158.505 68.6209 161.551 60.3993 168.487 57.2057C175.422 54.0121 183.629 57.0631 186.817 64.0111Z" fill="#F9C710"/>
<path d="M167.576 70.807C167.111 68.5069 170.508 66.5774 172.263 68.6494" stroke="#460A01" stroke-width="0.78" stroke-miterlimit="10" stroke-linecap="round"/>
<path d="M174.758 67.5089C174.293 65.2088 177.69 63.2793 179.445 65.3513" stroke="#460A01" stroke-width="0.78" stroke-miterlimit="10" stroke-linecap="round"/>
<path d="M168.923 72.9647C169.103 73.3639 168.126 74.2098 166.722 74.8561C165.327 75.5024 164.046 75.6925 163.857 75.2933C163.676 74.8941 164.654 74.0482 166.058 73.4019C167.453 72.7556 168.733 72.5655 168.923 72.9647Z" fill="#E5565A"/>
<path d="M185.195 65.4843C185.375 65.8835 184.398 66.7294 182.994 67.3758C181.599 68.0221 180.318 68.2122 180.128 67.813C179.948 67.4138 180.925 66.5679 182.33 65.9215C183.724 65.2752 185.005 65.0851 185.195 65.4843Z" fill="#E5565A"/>
<path d="M175.195 73.5825C176.077 70.579 179.531 72.7556 177.642 75.1983C180.546 74.8181 180.356 78.8862 176.789 77.508" stroke="#460A01" stroke-width="0.78" stroke-miterlimit="10" stroke-linecap="round"/>
<path d="M181.656 69.4193C182.662 68.9536 183.81 69.2292 184.521 69.9991C184.398 68.9536 184.948 67.908 185.954 67.4518C187.197 66.8815 188.668 67.4233 189.246 68.6779C190.651 71.7385 186.77 74.9036 186.77 74.9036C186.77 74.9036 181.912 75.9301 180.442 72.727C179.872 71.4818 180.413 70.0086 181.665 69.4288L181.656 69.4193Z" fill="#E0053B"/>
<path d="M360.996 274.877C364.207 267.938 361.195 259.705 354.268 256.489C347.341 253.272 339.123 256.29 335.912 263.229C332.701 270.168 335.714 278.4 342.64 281.617C349.567 284.834 357.785 281.816 360.996 274.877Z" fill="#F9C710"/>
<path d="M354.962 270.864C355.693 268.64 352.562 266.311 350.57 268.155" stroke="#460A01" stroke-width="0.78" stroke-miterlimit="10" stroke-linecap="round"/>
<path d="M348.226 266.72C348.957 264.496 345.826 262.167 343.833 264.011" stroke="#460A01" stroke-width="0.78" stroke-miterlimit="10" stroke-linecap="round"/>
<path d="M353.369 272.85C353.141 273.221 354.014 274.181 355.323 274.989C356.632 275.797 357.885 276.149 358.113 275.768C358.34 275.398 357.467 274.438 356.158 273.63C354.849 272.822 353.596 272.47 353.369 272.85Z" fill="#E5565A"/>
<path d="M338.112 263.46C337.884 263.83 338.757 264.79 340.067 265.598C341.376 266.406 342.628 266.758 342.856 266.378C343.084 266.007 342.211 265.047 340.901 264.239C339.592 263.431 338.34 263.08 338.112 263.46Z" fill="#E5565A"/>
<path d="M347.069 272.708C346.556 269.619 342.856 271.358 344.44 274.02C341.604 273.297 341.3 277.356 345.01 276.415" stroke="#460A01" stroke-width="0.78" stroke-miterlimit="10" stroke-linecap="round"/>
<path d="M341.158 267.794C340.218 267.214 339.042 267.338 338.245 268.022C338.492 267.005 338.074 265.893 337.135 265.313C335.968 264.591 334.44 264.962 333.719 266.131C331.964 269.001 335.427 272.603 335.427 272.603C335.427 272.603 340.123 274.21 341.964 271.197C342.685 270.028 342.315 268.497 341.148 267.775L341.158 267.794Z" fill="#E0053B"/>
<path d="M39.3086 228.511C42.4491 234.328 40.2859 241.589 34.4793 244.735C28.6727 247.881 21.4239 245.714 18.2834 239.897C15.1429 234.08 17.3061 226.819 23.1127 223.673C28.9193 220.527 36.1681 222.694 39.3086 228.511Z" fill="#F9C710"/>
<path d="M23.0938 235.459C22.5624 233.501 25.3804 231.647 27.0123 233.329" stroke="#460A01" stroke-width="0.67" stroke-miterlimit="10" stroke-linecap="round"/>
<path d="M29.0996 232.198C28.5683 230.24 31.3862 228.387 33.0181 230.069" stroke="#460A01" stroke-width="0.67" stroke-miterlimit="10" stroke-linecap="round"/>
<path d="M26.2344 239.489C29.2895 242.929 36.3295 239.869 35.153 234.651" stroke="#460A01" stroke-width="0.67" stroke-miterlimit="10" stroke-linecap="round"/>
<path d="M24.3747 237.245C24.555 237.578 23.758 238.367 22.5815 239.004C21.405 239.641 20.3139 239.878 20.1336 239.546C19.9533 239.213 20.7503 238.424 21.9268 237.787C23.0938 237.15 24.1944 236.913 24.3747 237.245Z" fill="#E5565A"/>
<path d="M37.9899 229.87C38.1702 230.202 37.3732 230.991 36.1967 231.628C35.0297 232.265 33.9291 232.503 33.7488 232.17C33.5685 231.837 34.3655 231.048 35.542 230.411C36.7091 229.775 37.8097 229.537 37.9899 229.87Z" fill="#E5565A"/>
<path d="M101.474 177.783C95.3728 174.485 60.7608 156.341 54.0339 186.442C48.5973 210.746 49.8022 266.72 51.5101 273.801C56.311 293.742 96.369 292.544 103.846 284.95C111.313 277.356 130.763 193.628 101.474 177.783Z" fill="#D2943F"/>
<path d="M91.6536 258.413C92.4885 264.819 96.7865 282.184 99.3957 284.941C102.792 288.543 106.863 283.724 105.961 277.508C104.756 269.163 101.711 256.426 101.711 256.426L91.6536 258.413Z" fill="#EEAB67"/>
<path d="M100.269 234.622C93.5891 238.129 88.5131 249.687 89.5662 261.834C95.4393 262.319 103.115 256.683 103.115 256.683C103.115 256.683 100.43 241.523 100.269 234.622Z" fill="#AF1A61"/>
<path d="M100.99 233.434C93.5133 242.91 107.906 276.985 122.442 308.37C147.983 304.977 156.883 243.756 154.483 235.981C143.05 228.492 122.442 219.3 115.668 222.969C108.893 226.648 100.99 233.434 100.99 233.434Z" fill="#E50069"/>
<path d="M109.889 261.834C105.563 267.737 101.113 272.736 99.4242 276.215C96.5589 282.108 98.5513 284.56 100.639 285.701C106.54 288.913 117.309 267.442 117.309 267.442L109.88 261.834H109.889Z" fill="#FBCA8E"/>
<path d="M103.692 232.514L115.323 224.413L103.862 207.9L92.2314 216.001L103.692 232.514Z" fill="#EEAB67"/>
<path d="M115.601 221.829C115.117 223.939 109.443 230.602 101.739 232.55" stroke="#E893BD" stroke-width="4.49" stroke-miterlimit="10" stroke-linecap="round"/>
<path d="M309.25 257.899C309.857 266.283 307.532 283.049 303.804 287.697C300.075 292.345 294.524 283.657 294.932 277.394C295.34 271.13 297.959 255.875 297.959 255.875L309.25 257.899Z" fill="#EEAB67"/>
<path d="M299.155 234.622C305.834 238.129 311.916 247.283 310.853 259.439C304.98 259.924 296.308 256.692 296.308 256.692C296.308 256.692 298.993 241.532 299.155 234.632V234.622Z" fill="#7F0C22"/>
<path d="M298.424 233.434C305.9 242.91 291.507 276.985 276.972 308.37C251.43 304.977 242.531 243.756 244.931 235.981C256.364 228.492 276.972 219.3 283.746 222.969C290.52 226.648 298.424 233.434 298.424 233.434Z" fill="#9F0D2E"/>
<path d="M289.79 258.783C301.441 274.685 311.47 283.809 301.28 290.187C291.09 296.565 282.105 267.442 282.105 267.442L289.79 258.783Z" fill="#FBCA8E"/>
<path d="M307.214 216.016L295.583 207.915L284.122 224.428L295.753 232.529L307.214 216.016Z" fill="#EEAB67"/>
<path d="M283.822 221.829C284.306 223.939 289.98 230.602 297.684 232.55" stroke="#DD0742" stroke-width="4.49" stroke-miterlimit="10" stroke-linecap="round"/>
<path d="M295.91 188.457C295.037 192.972 293.263 195.757 290.236 195.32C287.209 194.892 282.949 190.292 283.822 185.777C284.695 181.253 287.854 177.945 290.881 178.382C293.908 178.81 296.783 183.943 295.91 188.457Z" fill="#FBCA8E"/>
<path d="M296.517 207.923C296.849 208.009 297.228 208.132 297.627 208.246C297.741 207.923 297.826 207.705 297.874 207.629L296.517 207.914V207.923Z" fill="#FFAFCB"/>
<path d="M287.352 189.113C281.479 202.762 285.122 216.687 298.32 223.416C310.331 229.537 328.15 218.54 337.552 204.197C346.955 189.864 346.357 173.487 332.476 165.085C311.223 152.225 299.733 160.333 287.352 189.104V189.113Z" fill="#FBCA8E"/>
<path d="M326.916 206.279C323.206 208.997 321.451 211.792 323.131 214.348C324.81 216.905 330.778 218.806 334.488 216.088C338.197 213.369 339.839 209.102 338.159 206.535C336.48 203.979 330.626 203.56 326.916 206.269V206.279Z" fill="#FBCA8E"/>
<path d="M303.415 165.532C309.411 160.684 319.535 170.398 326.281 175.949C333.558 181.947 344.583 183.534 343.273 192.801C349.564 188.467 354.479 176.329 332.59 162.89C315.056 152.121 305.35 154.126 298.908 162.709C298.576 162.975 302.38 165.836 303.415 165.532Z" fill="#994D1D"/>
<path d="M310.407 155.647C302.665 155.808 302.456 157.985 299.828 160.038C295.179 163.669 288.984 178.905 288.984 178.905C288.272 180.53 288.319 182.384 289.097 183.971L289.695 185.197L310.417 155.647H310.407Z" fill="#994D1D"/>
<path d="M348.226 182.355L331.034 210.204H331.12C333.084 210.432 335.038 209.672 336.328 208.17L348.312 194.331C349.811 192.183 350.095 184.836 348.226 182.346V182.355Z" fill="#994D1D"/>
<path d="M317.504 149.288C317.011 150.714 316.717 152.092 315.815 153.356C317.694 151.949 319.041 149.849 320.683 148.005C321.233 149.497 321.48 151.655 321.641 152.995C324.44 150.533 327.372 148.794 330.37 146.75C330.455 147.758 330.92 149.982 330.844 150.258C331.205 149.754 331.85 149.222 332.144 148.737C332.913 150.419 333.577 152.396 333.994 154.288C335.294 152.757 336.528 151.047 337.827 149.516C339.241 154.82 339.678 159.05 342.685 163.821C345.067 167.604 347.61 171.168 349.687 175.16C353.796 183.068 351.186 193.324 342.657 200.985C342.657 200.985 340.332 202.505 337.382 199.873C342.742 192.402 341.964 189.512 337.79 184.827C333.776 180.331 327.201 180.065 322.685 175.683C318.681 171.795 315.74 165.579 309.013 164.6C305.682 164.116 302.921 165.798 297.826 173.392C297.096 171.482 295.265 168.935 292.494 170.893C295.198 166.91 296.754 160.399 304.145 155.4C308.358 152.548 313.311 151.522 317.504 149.279V149.288Z" fill="#B06523"/>
<path d="M309.515 193.542C313.263 194.968 315.73 197.268 314.81 200.139C313.889 203.009 309.572 202.41 306.603 200.994C303.633 199.587 306.603 192.43 309.515 193.533V193.542Z" fill="url(#paint0_linear_205_79)"/>
<path d="M307.76 193.096C309.354 193.362 310.929 193.904 312.324 194.807C313.69 195.7 315.018 196.974 315.36 198.808C315.512 199.711 315.17 200.776 314.43 201.365C313.719 201.964 312.855 202.239 312.02 202.334C310.341 202.543 308.709 202.211 307.172 201.745C308.775 201.878 310.398 201.954 311.906 201.65C312.646 201.488 313.377 201.222 313.87 200.738C314.383 200.281 314.591 199.616 314.478 198.932C314.25 197.544 313.13 196.308 311.925 195.367C310.682 194.417 309.259 193.685 307.76 193.086V193.096Z" fill="#A56052"/>
<path d="M297.741 203.542C296.697 204.568 296.593 206.117 296.735 207.429C296.906 208.779 297.542 210.033 298.452 211.05C299.363 212.067 300.492 212.904 301.697 213.636C302.305 213.997 302.95 214.291 303.576 214.643C304.221 214.938 304.885 215.213 305.54 215.537C304.828 215.403 304.126 215.213 303.415 215.042C302.732 214.786 302.029 214.567 301.375 214.244C300.046 213.607 298.804 212.752 297.779 211.63C296.783 210.499 296.08 209.026 296.043 207.486C295.995 206.726 296.137 205.965 296.375 205.252C296.678 204.578 297.067 203.865 297.731 203.542H297.741Z" fill="#A56052"/>
<path d="M313.7 183.6C312.571 186.081 309.658 193.609 302.893 190.111C296.128 186.613 302.513 179.789 302.513 179.789C302.513 179.789 310.569 182.061 313.7 183.6Z" fill="url(#paint1_linear_205_79)"/>
<path d="M306.024 191.147C305.606 191.537 304.952 191.527 304.563 191.109C304.174 190.691 304.183 190.035 304.601 189.645C305.018 189.256 305.673 189.265 306.062 189.683C306.451 190.102 306.441 190.757 306.024 191.147Z" fill="#643619"/>
<path d="M312.571 182.317C304.876 178.211 298.993 178.61 303.709 181.509C308.415 184.408 317.647 185.026 312.571 182.317Z" fill="#994D1D"/>
<path d="M320.929 188.134C319.193 190.235 313.719 196.147 319.81 200.719C325.911 205.29 329.241 196.536 329.241 196.536C329.241 196.536 323.681 190.273 320.929 188.134Z" fill="url(#paint2_linear_205_79)"/>
<path d="M317.523 198.352C317.353 198.903 317.656 199.483 318.197 199.654C318.747 199.825 319.326 199.521 319.497 198.979C319.668 198.428 319.364 197.848 318.823 197.677C318.282 197.506 317.694 197.81 317.523 198.352Z" fill="#643619"/>
<path d="M322.58 188.59C329.639 193.723 331.85 199.198 327.182 196.223C322.514 193.248 317.931 185.207 322.58 188.59Z" fill="#994D1D"/>
<path d="M298.092 189.493C297.779 189.988 296.251 189.588 294.667 188.59C293.082 187.602 292.048 186.395 292.361 185.891C292.674 185.397 294.202 185.796 295.786 186.794C297.371 187.783 298.405 188.99 298.092 189.493Z" fill="#F4A29D"/>
<path d="M328.34 208.446C328.026 208.94 326.499 208.541 324.914 207.543C323.33 206.554 322.296 205.347 322.609 204.844C322.922 204.349 324.45 204.749 326.034 205.747C327.619 206.735 328.653 207.942 328.34 208.446Z" fill="#F4A29D"/>
<path d="M263.091 93.8562H136.408C125.226 93.8562 116.161 102.937 116.161 114.139V370.816C116.161 382.018 125.226 391.099 136.408 391.099H263.091C274.273 391.099 283.338 382.018 283.338 370.816V114.139C283.338 102.937 274.273 93.8562 263.091 93.8562Z" fill="#74537D"/>
<path d="M261.658 100.31H137.841C129.776 100.31 123.239 106.859 123.239 114.938V369.153C123.239 377.232 129.776 383.781 137.841 383.781H261.658C269.723 383.781 276.26 377.232 276.26 369.153V114.938C276.26 106.859 269.723 100.31 261.658 100.31Z" fill="#543C5A"/>
<path d="M259.258 102.097H140.241C132.177 102.097 125.639 108.646 125.639 116.725V367.347C125.639 375.426 132.177 381.975 140.241 381.975H259.258C267.322 381.975 273.86 375.426 273.86 367.347V116.725C273.86 108.646 267.322 102.097 259.258 102.097Z" fill="#FDEBE7"/>
<path d="M206.96 230.944H142.604C139.9 230.944 137.708 233.139 137.708 235.848V258.422C137.708 261.131 139.9 263.327 142.604 263.327H183.62L191.524 272.157C192.672 273.848 195.281 273.307 195.679 271.301L198.336 263.327H206.97C209.674 263.327 211.866 261.131 211.866 258.422V235.848C211.866 233.139 209.674 230.944 206.97 230.944H206.96Z" fill="#F6B9D5"/>
<path d="M235.226 248.232C236.398 243.24 233.308 238.241 228.324 237.067C223.341 235.894 218.351 238.989 217.179 243.982C216.007 248.974 219.098 253.973 224.081 255.147C229.065 256.32 234.055 253.225 235.226 248.232Z" fill="#F6B9D5"/>
<path d="M204.797 239.166H145.687V241.219H204.797V239.166Z" fill="#FFAFCB"/>
<path d="M190.47 246.009H145.687V248.062H190.47V246.009Z" fill="#FFAFCB"/>
<path d="M204.797 252.852H145.687V254.905H204.797V252.852Z" fill="#FFAFCB"/>
<path d="M194.673 279.855H256.876C259.495 279.855 261.611 281.975 261.611 284.598V306.412C261.611 309.035 259.495 311.155 256.876 311.155H217.236L209.598 319.69C208.488 321.325 205.964 320.802 205.585 318.863L203.023 311.155H194.673C192.055 311.155 189.939 309.035 189.939 306.412V284.598C189.939 281.975 192.055 279.855 194.673 279.855Z" fill="#BA7FA6"/>
<path d="M183.397 299.88C184.578 294.89 181.497 289.885 176.516 288.702C171.535 287.518 166.539 290.605 165.358 295.595C164.176 300.585 167.257 305.59 172.238 306.773C177.22 307.956 182.216 304.87 183.397 299.88Z" fill="#BA7FA6"/>
<path d="M255.928 287.583H228.982V289.636H255.928V287.583Z" fill="#FFAFCB"/>
<path d="M255.928 294.426H211.145V296.479H255.928V294.426Z" fill="#FFAFCB"/>
<path d="M255.918 301.279H196.808V303.332H255.918V301.279Z" fill="#FFAFCB"/>
<path d="M276.906 272.318C279.097 272.755 281.621 272.651 284.335 271.786C292.94 269.048 292.94 261.796 291.175 255.333C289.42 248.87 283.357 248.48 283.357 248.48V254.554C281.241 254.905 271.706 255.333 270.814 255.39C269.363 255.485 269.135 258.536 270.577 258.859C269.306 259.23 268.053 259.648 268.006 261.312C267.968 262.728 268.85 263.574 270.539 264.201C269.334 264.923 269.714 266.767 270.33 267.727C270.919 268.649 271.782 268.697 272.218 268.744C271.507 269.258 271.735 271.463 272.854 271.691C273.974 271.919 276.915 272.309 276.915 272.309L276.906 272.318Z" fill="#FBCA8E"/>
<path d="M121.408 269.353C119.624 269.714 117.584 269.628 115.383 268.925C108.409 266.701 108.409 260.817 109.832 255.58C111.256 250.334 116.18 250.02 116.18 250.02V254.943C117.897 255.229 125.63 255.571 126.36 255.618C127.537 255.694 127.727 258.166 126.55 258.432C127.575 258.726 128.6 259.068 128.637 260.428C128.666 261.578 127.954 262.262 126.588 262.766C127.565 263.355 127.262 264.847 126.759 265.627C126.275 266.378 125.582 266.416 125.231 266.454C125.81 266.872 125.62 268.659 124.719 268.849C123.808 269.039 121.417 269.353 121.417 269.353H121.408Z" fill="#FBCA8E"/>
<path d="M77.6397 194.103C77.5163 193.723 77.4879 193.324 77.5638 192.925L77.8958 192.611C77.6966 192.563 77.4879 192.525 77.2886 192.497C77.2601 193.029 77.3455 193.571 77.6397 194.103Z" fill="#CE1F33"/>
<path d="M66.6906 210.242C76.3778 220.698 92.4978 230.336 103.191 223.131C117.347 213.598 113.741 193.438 105.363 181.006C96.995 168.573 80.9604 166.663 68.9013 174.771C56.8421 182.878 56.5005 199.255 66.6811 210.242H66.6906Z" fill="#FAC37D"/>
<path d="M106.018 190.377C106.303 190.701 105.591 191.822 104.415 192.887C103.238 193.951 102.052 194.55 101.758 194.227C101.464 193.904 102.185 192.782 103.362 191.718C104.538 190.653 105.724 190.054 106.018 190.377Z" fill="#F195A2"/>
<path opacity="0.39" d="M87.6589 189.607C88.5033 191.651 91.7008 198.922 97.2797 196.261C102.859 193.609 96.5111 186.243 96.5111 186.243C96.5111 186.243 90.2206 188.438 87.6494 189.607H87.6589Z" fill="url(#paint3_linear_205_79)"/>
<path d="M88.6267 188.448C94.2721 184.941 100.05 185.368 94.6611 188.258C89.2719 191.147 85.6855 190.273 88.6267 188.448Z" fill="#C57036"/>
<path d="M98.6174 194.683C95.3156 192.554 92.659 195.662 94.2815 198.19" stroke="#70422C" stroke-width="1.13" stroke-miterlimit="10"/>
<path opacity="0.39" d="M78.9774 197.458C80.9224 198.514 87.8107 202.439 84.6037 207.733C81.3968 213.018 74.7268 205.946 74.7268 205.946C74.7268 205.946 77.5542 199.911 78.9679 197.458H78.9774Z" fill="url(#paint4_linear_205_79)"/>
<path d="M77.7345 198.304C73.6737 203.57 73.5124 209.377 76.9281 204.292C80.3532 199.217 79.8504 195.548 77.7345 198.304Z" fill="#C57036"/>
<path d="M82.8959 208.902C81.1121 205.395 84.4804 203.066 86.8239 204.939" stroke="#70422C" stroke-width="1.13" stroke-miterlimit="10"/>
<path d="M82.3457 211.782C82.6303 212.105 81.9187 213.227 80.7422 214.291C79.5657 215.356 78.3797 215.955 78.0856 215.632C77.801 215.308 78.5125 214.187 79.689 213.122C80.8655 212.058 82.0515 211.459 82.3457 211.782Z" fill="#F195A2"/>
<path d="M92.1182 205.224C92.4123 204.368 92.8487 203.561 93.456 202.857C94.0537 202.173 94.8792 201.555 95.9133 201.536C96.4067 201.536 96.9855 201.793 97.2322 202.258C97.3935 202.467 97.4219 202.724 97.5168 202.952C97.5358 203.19 97.5642 203.427 97.5642 203.665C97.5358 204.606 97.2037 205.471 96.8337 206.288C97.0139 205.404 97.2417 204.53 97.1847 203.675C97.1657 202.829 96.7103 201.983 95.9039 202.03C95.1258 202.03 94.3478 202.534 93.7311 203.123C93.1049 203.732 92.6021 204.463 92.1277 205.224H92.1182Z" fill="#A56052"/>
<path d="M96.1411 214.9C96.7389 215.594 97.7066 215.755 98.5416 215.717C99.3955 215.66 100.211 215.327 100.895 214.795C101.578 214.263 102.147 213.588 102.669 212.866C102.925 212.505 103.143 212.105 103.38 211.725C103.599 211.326 103.798 210.927 104.035 210.528C103.921 210.965 103.769 211.402 103.627 211.849C103.428 212.267 103.257 212.695 103.029 213.103C102.574 213.911 101.976 214.662 101.227 215.251C100.468 215.822 99.5093 216.202 98.5416 216.154C98.0577 216.145 97.5928 216.021 97.1563 215.841C96.7483 215.622 96.3119 215.347 96.1411 214.9Z" fill="#A56052"/>
<path d="M65.4572 168.497L62.6772 171.149C58.939 175.645 57.345 182.574 57.7245 188.838C57.8858 191.527 59.9731 198.409 62.8765 201.555C63.8347 202.591 63.4173 187.602 65.0966 184.713C68.0948 179.551 74.4517 174.001 80.2489 172.708C86.4919 171.311 108.02 183.962 111.161 189.37C110.544 181.728 107.375 178.107 104.443 173.449C100.174 166.663 94.1582 164.211 89.8507 162.823C79.4993 159.468 73.2942 164.334 65.4572 168.516V168.497Z" fill="#D2943F"/>
<path d="M67.1461 214.044C67.1461 214.044 80.932 168.564 77.2128 164.315C73.484 160.067 54.1666 173.715 54.0337 186.433C53.8725 201.555 60.8556 208.988 67.1461 214.035V214.044Z" fill="#D2943F"/>
<path d="M76.4633 199.93C76.4633 199.93 74.0343 202.106 72.5637 204.264C71.5106 205.804 70.353 208.465 70.353 208.465L71.7478 208.76C71.7478 208.76 72.8673 207.676 73.9584 205.956C75.0496 204.254 77.9813 201.869 77.9813 201.869L76.4633 199.92V199.93Z" fill="#D19A4D"/>
<path d="M80.0972 169.096C78.8922 168.725 77.6778 168.488 76.4064 168.535C76.2451 168.535 75.4956 168.792 75.5145 168.763C75.2584 168.858 75.0022 168.954 74.7555 169.068C74.3665 169.248 74.0249 169.41 73.7118 169.562C66.6623 185.929 63.9108 214.462 82.0043 219.015C77.1749 216.611 77.7632 206.146 77.9434 203.675C78.5886 195.073 83.6267 188.182 83.9208 178.743C83.9778 177.071 83.5603 173.887 82.8108 170.598C82.0897 169.942 81.1978 169.438 80.0877 169.096H80.0972Z" fill="#D2943F"/>
<path d="M219.826 115.014H181.03C177.756 115.014 174.806 113.645 173.544 111.554L166.323 99.5305H234.532L227.312 111.554C226.05 113.655 223.099 115.014 219.826 115.014Z" fill="#74537D"/>
<path d="M206.96 131.533H142.604C139.9 131.533 137.708 133.729 137.708 136.438V159.012C137.708 161.72 139.9 163.916 142.604 163.916H183.62L191.524 172.746C192.672 174.438 195.281 173.896 195.679 171.891L198.336 163.916H206.97C209.674 163.916 211.866 161.72 211.866 159.012V136.438C211.866 133.729 209.674 131.533 206.97 131.533H206.96Z" fill="#F6B9D5"/>
<path d="M235.223 148.815C236.394 143.823 233.304 138.824 228.32 137.651C223.337 136.477 218.347 139.573 217.175 144.565C216.004 149.558 219.094 154.556 224.077 155.73C229.061 156.904 234.051 153.808 235.223 148.815Z" fill="#F6B9D5"/>
<path d="M204.797 139.745H145.687V141.798H204.797V139.745Z" fill="#FFAFCB"/>
<path d="M190.47 146.598H145.687V148.651H190.47V146.598Z" fill="#FFAFCB"/>
<path d="M204.797 153.442H145.687V155.495H204.797V153.442Z" fill="#FFAFCB"/>
<path d="M206.96 329.594H142.604C139.9 329.594 137.708 331.79 137.708 334.498V357.072C137.708 359.781 139.9 361.977 142.604 361.977H183.62L191.524 370.807C192.672 372.499 195.281 371.957 195.679 369.951L198.336 361.977H206.97C209.674 361.977 211.866 359.781 211.866 357.072V334.498C211.866 331.79 209.674 329.594 206.97 329.594H206.96Z" fill="#F6B9D5"/>
<path d="M235.222 346.886C236.394 341.893 233.303 336.894 228.32 335.721C223.336 334.547 218.346 337.643 217.175 342.635C216.003 347.628 219.093 352.626 224.077 353.8C229.061 354.974 234.05 351.878 235.222 346.886Z" fill="#F6B9D5"/>
<path d="M204.797 337.816H145.687V339.869H204.797V337.816Z" fill="#FFAFCB"/>
<path d="M190.47 344.659H145.687V346.712H190.47V344.659Z" fill="#FFAFCB"/>
<path d="M204.797 351.503H145.687V353.556H204.797V351.503Z" fill="#FFAFCB"/>
<path d="M194.673 180.435H256.876C259.495 180.435 261.611 182.555 261.611 185.178V206.992C261.611 209.615 259.495 211.735 256.876 211.735H217.236L209.598 220.27C208.488 221.905 205.964 221.382 205.585 219.443L203.023 211.735H194.673C192.055 211.735 189.939 209.615 189.939 206.992V185.178C189.939 182.555 192.055 180.435 194.673 180.435Z" fill="#BA7FA6"/>
<path d="M183.399 200.467C184.58 195.477 181.499 190.472 176.518 189.289C171.536 188.106 166.541 191.192 165.359 196.182C164.178 201.172 167.259 206.177 172.24 207.36C177.222 208.544 182.217 205.458 183.399 200.467Z" fill="#BA7FA6"/>
<path d="M255.928 188.172H228.982V190.225H255.928V188.172Z" fill="#FFAFCB"/>
<path d="M255.928 195.016H211.145V197.069H255.928V195.016Z" fill="#FFAFCB"/>
<path d="M255.918 201.859H196.808V203.912H255.918V201.859Z" fill="#FFAFCB"/>
<g opacity="0.72">
<path opacity="0.52" d="M273.86 121.344L125.639 269.828V368.079C125.639 370.236 126.142 372.27 127.015 374.086L273.86 226.98V121.344Z" fill="#FFFEF1"/>
<path opacity="0.52" d="M259.989 102.097H248.869L125.639 225.555V245.714L267.048 104.055C264.979 102.819 262.569 102.106 259.989 102.106V102.097Z" fill="#FFFEF1"/>
<path opacity="0.52" d="M273.86 249.183L141.294 381.984H161.428L273.86 269.343V249.183Z" fill="#FFFEF1"/>
</g>
</g>
<path d="M351.087 7.78298C361.427 1.18288 365.844 11.8982 347.096 17C341.093 -2.08621 349.759 -5.01683 351.087 7.78298Z" fill="#E50050"/>
<path d="M64.6208 9.81856C59.2899 -1.22936 70.4526 -4.34866 73.3011 14.8717C53.639 18.5751 51.7538 9.62311 64.6208 9.81856Z" fill="#E50050"/>
<defs>
<linearGradient id="paint0_linear_205_79" x1="315.154" y1="199.592" x2="307.982" y2="197.719" gradientUnits="userSpaceOnUse">
<stop stop-color="#D38278"/>
<stop offset="1" stop-color="#F6B9AD" stop-opacity="0"/>
</linearGradient>
<linearGradient id="paint1_linear_205_79" x1="308.631" y1="181.305" x2="303.982" y2="189.305" gradientUnits="userSpaceOnUse">
<stop stop-color="#DA9C68"/>
<stop offset="1" stop-color="#DA9C68" stop-opacity="0"/>
</linearGradient>
<linearGradient id="paint2_linear_205_79" x1="325.371" y1="191.239" x2="320.208" y2="198.913" gradientUnits="userSpaceOnUse">
<stop stop-color="#DA9C68"/>
<stop offset="1" stop-color="#DA9C68" stop-opacity="0"/>
</linearGradient>
<linearGradient id="paint3_linear_205_79" x1="91.4171" y1="187.301" x2="95.3807" y2="195.546" gradientUnits="userSpaceOnUse">
<stop stop-color="#C9926A"/>
<stop offset="1" stop-color="#C9926A" stop-opacity="0"/>
</linearGradient>
<linearGradient id="paint4_linear_205_79" x1="76.8952" y1="202.252" x2="84.6915" y2="207.02" gradientUnits="userSpaceOnUse">
<stop stop-color="#C9926A"/>
<stop offset="1" stop-color="#C9926A" stop-opacity="0"/>
</linearGradient>
<clipPath id="clip0_205_79">
<rect width="403" height="376" fill="white" transform="translate(0 22)"/>
</clipPath>
</defs>
</svg>
